# xmcd
#
# Track frame offsets:
#	150
#	42167
#	81767
#	115020
#	151000
#
# Disc length: 2649 seconds
#
# Revision: 1
# Processed by: cddbd v1.5.1PL0 Copyright (c) Steve Scherf et al.
# Submitted via: CDex 1.50Beta5
#
DISCID=2b0a5705
DTITLE=Various Artist - 渚の調べ
DYEAR=1900
DGENRE=Classical
TTITLE0=君を愛す
TTITLE1=愛の喜び
TTITLE2=夢のごとく
TTITLE3=アンダンテ・カンタービレ
TTITLE4=ロマンス
EXTD=
EXTT0=
EXTT1=
EXTT2=
EXTT3=
EXTT4=
PLAYORDER=
